HIERARCHY
ROOT Hips
{
	OFFSET 44.237999 -20.257414 84.280998
	CHANNELS 6 Xposition Yposition Zposition Xrotation Yrotation Zrotation
	JOINT spine
	{
		OFFSET 0.000000 -0.342409 5.954384
		CHANNELS 3 Xrotation Yrotation Zrotation
		JOINT spine1
		{
			OFFSET 0.000000 0.000000 8.856018
			CHANNELS 3 Xrotation Yrotation Zrotation
			JOINT spine2
			{
				OFFSET 0.000000 -0.000002 8.485672
				CHANNELS 3 Xrotation Yrotation Zrotation
				JOINT Neck
				{
					OFFSET 0.000000 -1.038704 21.786301
					CHANNELS 3 Xrotation Yrotation Zrotation
					JOINT Head
					{
						OFFSET 0.000000 -0.000002 6.582199
						CHANNELS 3 Xrotation Yrotation Zrotation
						End Site
						{
							OFFSET 0.000000 5.254358 15.932602
						}
					}
				}
				JOINT RightShoulder
				{
					OFFSET -3.573071 0.497522 9.163864
					CHANNELS 3 Xrotation Yrotation Zrotation
					JOINT RightArm
					{
						OFFSET 0.000000 -0.000002 12.019196
						CHANNELS 3 Xrotation Yrotation Zrotation
						JOINT RightArmRoll
						{
							OFFSET 0.000000 -0.000002 6.067551
							CHANNELS 3 Xrotation Yrotation Zrotation
							JOINT RightForeArm
							{
								OFFSET 0.000000 -0.000002 17.672592
								CHANNELS 3 Xrotation Yrotation Zrotation
								JOINT RightForeArmRoll
								{
									OFFSET 0.000000 -0.000002 6.808716
									CHANNELS 3 Xrotation Yrotation Zrotation
									JOINT RightHand
									{
										OFFSET 0.000000 -0.000002 13.663605
										CHANNELS 3 Xrotation Yrotation Zrotation
										End Site
										{
											OFFSET 0.000000 0.000000 0.100006
										}
									}
								}
							}
						}
					}
				}
				JOINT LeftShoulder
				{
					OFFSET 3.573071 0.497522 9.163864
					CHANNELS 3 Xrotation Yrotation Zrotation
					JOINT LeftArm
					{
						OFFSET 0.000000 -0.000002 12.019196
						CHANNELS 3 Xrotation Yrotation Zrotation
						JOINT LeftArmRoll
						{
							OFFSET 0.000000 -0.000002 6.067551
							CHANNELS 3 Xrotation Yrotation Zrotation
							JOINT LeftForeArm
							{
								OFFSET 0.000000 -0.000002 17.672592
								CHANNELS 3 Xrotation Yrotation Zrotation
								JOINT LeftForeArmRoll
								{
									OFFSET 0.000000 -0.000002 6.808716
									CHANNELS 3 Xrotation Yrotation Zrotation
									JOINT LeftHand
									{
										OFFSET 0.000000 -0.000002 13.663605
										CHANNELS 3 Xrotation Yrotation Zrotation
										End Site
										{
											OFFSET 0.000000 0.000000 0.100006
										}
									}
								}
							}
						}
					}
				}
			}
		}
	}
	JOINT RightUpLeg
	{
		OFFSET -5.277740 0.811857 -0.967796
		CHANNELS 3 Xrotation Yrotation Zrotation
		JOINT RightUpLegRoll
		{
			OFFSET 0.000000 -0.000002 16.021400
			CHANNELS 3 Xrotation Yrotation Zrotation
			JOINT RightLeg
			{
				OFFSET 0.000000 0.000002 -19.840096
				CHANNELS 3 Xrotation Yrotation Zrotation
				JOINT RightLegRoll
				{
					OFFSET 0.000000 -0.000002 19.904999
					CHANNELS 3 Xrotation Yrotation Zrotation
					JOINT RightFoot
					{
						OFFSET 0.000000 -0.000004 16.567497
						CHANNELS 3 Xrotation Yrotation Zrotation
						JOINT RightToeBase
						{
							OFFSET 0.000000 -0.000002 13.849602
							CHANNELS 3 Xrotation Yrotation Zrotation
							End Site
							{
								OFFSET 0.005871 0.773115 6.707275
							}
						}
					}
				}
			}
		}
	}
	JOINT LeftUpLeg
	{
		OFFSET 5.277740 0.811857 -0.967796
		CHANNELS 3 Xrotation Yrotation Zrotation
		JOINT LeftUpLegRoll
		{
			OFFSET 0.000000 -0.000002 16.021500
			CHANNELS 3 Xrotation Yrotation Zrotation
			JOINT LeftLeg
			{
				OFFSET 0.000000 -0.000004 19.839996
				CHANNELS 3 Xrotation Yrotation Zrotation
				JOINT LeftLegRoll
				{
					OFFSET 0.000000 -0.000004 20.089005
					CHANNELS 3 Xrotation Yrotation Zrotation
					JOINT LeftFoot
					{
						OFFSET 0.000000 -0.000002 16.383499
						CHANNELS 3 Xrotation Yrotation Zrotation
						JOINT LeftToeBase
						{
							OFFSET 0.000000 -0.000002 13.849594
							CHANNELS 3 Xrotation Yrotation Zrotation
							End Site
							{
								OFFSET -0.026310 0.773115 6.707275
							}
						}
					}
				}
			}
		}
	}
}
MOTION
Frames: 9
Frame Time: 0.041667
45.777405 -19.186510 84.455482 -1.540304 2.695367 72.836256 -1.911899 0.521592 -0.148060 0.180282 1.046266 -0.291130 1.825473 1.042780 -0.303232 -15.034990 -22.332453 -0.014844 16.739260 12.803044 5.481784 -4.633387 -85.347565 -7.616236 100.738269 -53.082905 98.467811 0.000001 0.000000 -0.000000 -0.027761 3.640771 -1.990816 0.000038 0.000002 -3.011602 -5.000152 -7.999961 0.000033 -10.492951 45.851043 11.564304 107.221423 17.035202 -88.842709 0.000002 0.000001 0.000002 -0.025624 -3.641399 1.989197 0.000007 0.000005 3.011620 -4.999849 7.999881 -0.000006 -3.069886 180.319562 1.408585 -179.999991 0.000005 -1.006997 174.322028 -1.219987 -0.269291 -0.000007 0.000004 0.061919 69.303027 6.876281 2.149305 25.456936 -7.350352 0.000009 -7.420833 177.050880 -1.084447 -0.000004 -0.000004 -0.958087 -9.831894 3.588404 0.552282 0.000015 -0.000000 -0.126141 69.775266 -6.841653 -2.208615 25.456851 7.355619 -0.000006 
45.779999 -19.193911 84.450981 -1.532665 2.677882 72.856419 -1.914617 0.522368 -0.148034 0.174843 1.048146 -0.291003 1.820033 1.044663 -0.303047 -14.882086 -22.263539 0.025055 16.672193 12.758326 5.480617 -4.476610 -85.340345 -7.455014 100.726364 -53.136795 98.478678 0.000001 0.000001 0.000000 -0.027429 3.639690 -1.990809 0.000037 0.000001 -3.011600 -5.000153 -7.999960 0.000034 -10.500957 45.880512 11.576570 107.184909 17.115018 -88.861943 0.000001 -0.000000 0.000000 -0.025643 -3.641419 1.989200 0.000007 0.000000 3.011623 -4.999847 7.999881 -0.000007 -3.059219 180.339534 1.424253 -179.999991 0.000005 -1.006995 174.322000 -1.228945 -0.269173 -0.000007 0.000004 0.062063 69.308846 6.876315 2.149250 25.456935 -7.350352 0.000011 -7.397904 177.063597 -1.081410 -0.000005 -0.000004 -0.958126 -9.800972 3.591942 0.550426 0.000015 -0.000000 -0.125724 69.770758 -6.841767 -2.208413 25.456853 7.355619 -0.000007 
45.762402 -19.181313 84.447495 -1.525623 2.659161 72.876302 -1.917310 0.523289 -0.148011 0.169467 1.050306 -0.290813 1.814653 1.046825 -0.302866 -14.722130 -22.197879 0.067059 16.599909 12.714855 5.481777 -4.305548 -85.338009 -7.279605 100.708189 -53.192198 98.486465 0.000001 0.000000 -0.000001 -0.027186 3.638889 -1.990814 0.000032 -0.000000 -3.011601 -5.000151 -7.999960 0.000034 -10.504189 45.905831 11.582421 107.148722 17.196552 -88.882741 -0.000001 0.000001 0.000001 -0.025658 -3.641441 1.989197 0.000008 0.000002 3.011619 -4.999848 7.999880 -0.000003 -3.044967 180.359519 1.439439 -179.999991 0.000005 -1.007993 174.324200 -1.237908 -0.269017 -0.000007 0.000004 0.062198 69.314023 6.876318 2.149128 25.456936 -7.350352 0.000010 -7.374659 177.075345 -1.079140 -0.000005 -0.000004 -0.958171 -9.772729 3.596061 0.548881 0.000015 -0.000001 -0.125294 69.767200 -6.841912 -2.208259 25.456849 7.355619 -0.000006 
45.757599 -19.158516 84.446396 -1.518901 2.639453 72.896164 -1.920059 0.524358 -0.147989 0.163972 1.052776 -0.290557 1.809163 1.049297 -0.302685 -14.553632 -22.134712 0.111518 16.519946 12.671337 5.485529 -4.115995 -85.340133 -7.085483 100.683156 -53.249466 98.490775 0.000001 0.000001 -0.000000 -0.027010 3.638310 -1.990816 0.000032 -0.000000 -3.011601 -5.000153 -7.999959 0.000034 -10.501990 45.927756 11.581060 107.111662 17.280981 -88.904215 -0.000001 0.000001 -0.000001 -0.025679 -3.641461 1.989194 0.000009 0.000002 3.011619 -4.999846 7.999879 -0.000006 -3.027783 180.378493 1.454370 -179.999991 0.000005 -1.007995 174.328066 -1.245868 -0.268725 -0.000007 0.000004 0.062322 69.318661 6.876297 2.149136 25.456936 -7.350352 0.000010 -7.351120 177.087093 -1.077395 -0.000005 -0.000004 -0.958212 -9.746503 3.600542 0.547584 0.000015 -0.000000 -0.124852 69.764508 -6.842092 -2.208057 25.456849 7.355621 -0.000007 
45.747101 -19.153111 84.446083 -1.512460 2.618849 72.916128 -1.922851 0.525560 -0.147964 0.158388 1.055516 -0.290249 1.803574 1.052038 -0.302505 -14.377727 -22.073513 0.158077 16.433462 12.627886 5.491423 -3.910743 -85.346410 -6.875639 100.652359 -53.308342 98.492298 0.000001 0.000000 -0.000000 -0.026883 3.637900 -1.990813 0.000035 0.000001 -3.011601 -5.000154 -7.999959 0.000034 -10.495029 45.946614 11.573372 107.073891 17.367942 -88.926187 -0.000001 0.000002 -0.000000 -0.025695 -3.641485 1.989195 0.000011 0.000003 3.011617 -4.999850 7.999880 -0.000003 -3.008091 180.397481 1.469052 -179.999991 0.000005 -1.007994 174.333270 -1.253845 -0.268409 -0.000007 0.000004 0.062449 69.322903 6.876324 2.149078 25.456935 -7.350351 0.000010 -7.327296 177.099838 -1.076191 -0.000004 -0.000005 -0.958257 -9.722037 3.605329 0.546507 0.000015 -0.000001 -0.124400 69.762439 -6.842258 -2.207914 25.456848 7.355619 -0.000007 
45.731701 -19.146309 84.444496 -1.506229 2.597434 72.935977 -1.925671 0.526876 -0.147938 0.152741 1.058487 -0.289892 1.797935 1.055000 -0.302320 -14.195919 -22.014121 0.206151 16.341591 12.584511 5.499040 -3.692488 -85.356102 -6.652823 100.616569 -53.368393 98.491301 0.000001 -0.000000 -0.000001 -0.026806 3.637650 -1.990808 0.000037 0.000001 -3.011600 -5.000152 -7.999959 0.000034 -10.483978 45.962744 11.560261 107.035990 17.456862 -88.949499 -0.000001 -0.000000 -0.000001 -0.025716 -3.641490 1.989199 0.000010 0.000001 3.011620 -4.999848 7.999879 -0.000003 -2.986256 180.415458 1.483549 -179.999991 0.000005 -1.007993 174.339554 -1.261825 -0.269062 -0.000008 0.000004 0.062577 69.326912 6.876305 2.148925 25.456936 -7.350350 0.000009 -7.303209 177.111573 -1.075210 -0.000005 -0.000004 -0.958297 -9.699023 3.610358 0.545614 0.000015 -0.000000 -0.123937 69.760902 -6.842406 -2.207836 25.456848 7.355618 -0.000006 
45.722397 -19.137213 84.444893 -1.500135 2.575309 72.955921 -1.928523 0.528290 -0.147916 0.147062 1.061647 -0.289498 1.792256 1.058162 -0.302132 -14.009255 -21.956137 0.255412 16.245654 12.541218 5.507929 -3.464006 -85.368670 -6.419751 100.576735 -53.429271 98.488282 -0.000000 -0.000001 -0.000001 -0.026774 3.637549 -1.990811 0.000033 -0.000000 -3.011600 -5.000151 -7.999959 0.000034 -10.469606 45.976681 11.542713 106.997700 17.547535 -88.972851 0.000002 0.000000 -0.000000 -0.025730 -3.641510 1.989196 0.000009 0.000001 3.011621 -4.999849 7.999883 -0.000003 -2.962683 180.434432 1.497755 -179.999991 0.000005 -1.009004 174.346548 -1.267808 -0.268498 -0.000007 0.000004 0.062706 69.330614 6.876303 2.148895 25.456936 -7.350347 0.000010 -7.278848 177.122351 -1.074355 -0.000005 -0.000004 -0.958337 -9.677207 3.615600 0.544872 0.000015 -0.000000 -0.123463 69.759809 -6.842605 -2.207637 25.456851 7.355620 -0.000006 
45.735695 -19.165113 84.448692 -1.494123 2.552563 72.975961 -1.931361 0.529785 -0.147890 0.141378 1.064957 -0.289067 1.786567 1.061474 -0.301939 -13.819127 -21.899422 0.305313 16.146818 12.498316 5.517595 -3.228239 -85.383403 -6.179410 100.533363 -53.490586 98.483214 0.000001 -0.000002 -0.000001 -0.026780 3.637559 -1.990810 0.000035 -0.000000 -3.011600 -5.000153 -7.999960 0.000034 -10.452544 45.988757 11.521610 106.959219 17.639597 -88.996327 -0.000000 0.000001 -0.000001 -0.025749 -3.641533 1.989191 0.000008 0.000003 3.011621 -4.999847 7.999880 -0.000004 -2.937777 180.452423 1.511815 -179.999991 0.000005 -1.009005 174.353979 -1.274785 -0.269020 -0.000007 0.000004 0.062849 69.334206 6.876302 2.148771 25.456935 -7.350349 0.000009 -7.254220 177.134085 -1.073791 -0.000005 -0.000004 -0.958382 -9.656290 3.620971 0.544248 0.000014 -0.000000 -0.122981 69.758921 -6.842815 -2.207431 25.456848 7.355619 -0.000006 
45.720398 -19.148310 84.451286 -1.488132 2.529279 72.995987 -1.934193 0.531344 -0.147862 0.135720 1.068398 -0.288614 1.780908 1.064905 -0.301745 -13.626565 -21.843493 0.355552 16.046408 12.455720 5.527632 -2.988236 -85.399973 -5.934948 100.487765 -53.552061 98.477012 -0.000001 -0.000001 0.000001 -0.026819 3.637678 -1.990808 0.000036 0.000001 -3.011600 -5.000152 -7.999960 0.000034 -10.433577 45.999613 11.497957 106.921154 17.732455 -89.020738 -0.000003 -0.000001 0.000001 -0.025768 -3.641553 1.989191 0.000010 0.000003 3.011619 -4.999847 7.999880 -0.000006 -2.911916 180.470414 1.525682 -179.999991 0.000005 -1.009005 174.361547 -1.280769 -0.269445 -0.000007 0.000004 0.063003 69.337792 6.876297 2.148647 25.456935 -7.350353 0.000012 -7.229325 177.145833 -1.073315 -0.000005 -0.000004 -0.958422 -9.636018 3.626444 0.543707 0.000015 -0.000000 -0.122494 69.758143 -6.843025 -2.207315 25.456849 7.355619 -0.000007 
